HIERARCHY
ROOT Hips
{
	OFFSET -0.179506 -22.333345 2.821913
	CHANNELS 6 Xposition Yposition Zposition Zrotation Yrotation Xrotation 
	JOINT LeftUpLeg
	{
		OFFSET 6.951974 -9.140623 -0.681533
		CHANNELS 3 Zrotation Yrotation Xrotation
		JOINT LeftLeg
		{
			OFFSET 3.427654 -37.519855 -0.449580
			CHANNELS 3 Zrotation Yrotation Xrotation
			JOINT LeftFoot
			{
				OFFSET -1.359570 -39.796059 -4.369333
				CHANNELS 3 Zrotation Yrotation Xrotation
				JOINT LeftToe
				{
					OFFSET 2.635814 -5.579078 11.928840
					CHANNELS 3 Zrotation Yrotation Xrotation
					End Site
					{
						OFFSET 0.000000 0.000000 0.000000
					}
				}
			}
		}
	}
	JOINT RightUpLeg
	{
		OFFSET -6.767048 -9.052170 -0.431982
		CHANNELS 3 Zrotation Yrotation Xrotation
		JOINT RightLeg
		{
			OFFSET -3.829005 -38.256897 -0.885003
			CHANNELS 3 Zrotation Yrotation Xrotation
			JOINT RightFoot
			{
				OFFSET 1.577377 -39.841461 -4.231180
				CHANNELS 3 Zrotation Yrotation Xrotation
				JOINT RightToe
				{
					OFFSET -2.537174 -4.814398 12.334795
					CHANNELS 3 Zrotation Yrotation Xrotation
					End Site
					{
						OFFSET 0.000000 0.000000 0.000000
					}
				}
			}
		}
	}
	JOINT Spine
	{
		OFFSET -0.253288 10.896323 -2.669631
		CHANNELS 3 Zrotation Yrotation Xrotation
		JOINT Spine1
		{
			OFFSET 0.548704 13.518043 0.109247
			CHANNELS 3 Zrotation Yrotation Xrotation
			JOINT Spine2
			{
				OFFSET 0.145701 5.292222 2.542457
				CHANNELS 3 Zrotation Yrotation Xrotation
				JOINT Neck
				{
					OFFSET -0.277840 21.387037 -4.285703
					CHANNELS 3 Zrotation Yrotation Xrotation
					JOINT Head
					{
						OFFSET 0.515184 6.496960 5.134897
						CHANNELS 3 Zrotation Yrotation Xrotation
						End Site
						{
							OFFSET 0.000000 0.000000 0.000000
						}
					}
				}
				JOINT LeftShoulder
				{
					OFFSET 7.884473 12.174932 -3.408961
					CHANNELS 3 Zrotation Yrotation Xrotation
					JOINT LeftArm
					{
						OFFSET 9.097692 3.046888 -0.886815
						CHANNELS 3 Zrotation Yrotation Xrotation
						JOINT LeftForeArm
						{
							OFFSET 25.961220 -1.277207 -2.745643
							CHANNELS 3 Zrotation Yrotation Xrotation
							JOINT LeftHand
							{
								OFFSET 24.923361 0.898606 -0.117091
								CHANNELS 3 Zrotation Yrotation Xrotation
								End Site
								{
									OFFSET 0.000000 0.000000 0.000000
								}
							}
						}
					}
				}
				JOINT RightShoulder
				{
					OFFSET -8.175920 11.883285 -3.861528
					CHANNELS 3 Zrotation Yrotation Xrotation
					JOINT RightArm
					{
						OFFSET -9.601238 3.255117 -0.914307
						CHANNELS 3 Zrotation Yrotation Xrotation
						JOINT RightForeArm
						{
							OFFSET -25.374195 -1.332924 -2.140099
							CHANNELS 3 Zrotation Yrotation Xrotation
							JOINT RightHand
							{
								OFFSET -25.529810 0.777228 -0.555919
								CHANNELS 3 Zrotation Yrotation Xrotation
								End Site
								{
									OFFSET 0.000000 0.000000 0.000000
								}
							}
						}
					}
				}
			}
		}
	}
}
MOTION
Frames: 14
Frame Time: 0.033333
18.552307 -152.836426 90.945656 178.415512 0.533871 89.911651 0.754622 3.750059 3.705729 -2.719895 -3.474182 3.319411 3.772959 12.797332 -15.000991 nan nan nan -0.716655 -3.126462 0.148614 2.921003 0.291722 5.394978 1.135390 -6.651331 -12.765315 nan nan nan 0.443139 -0.010569 7.995385 2.884169 -4.706080 4.389522 1.525494 -1.135227 -4.601679 -0.934250 2.585220 -0.981052 1.616166 3.531044 3.286265 -28.824329 -3.586155 0.700112 -53.953891 -5.888274 15.930768 1.738055 -24.340317 6.681184 -5.172013 -10.676273 1.422666 28.757196 7.060925 2.797271 53.172187 2.620146 15.566553 -6.841089 20.463844 -1.641642 8.251054 9.091681 -0.884438 
18.491276 -152.874298 90.960106 178.679609 0.496197 89.773565 0.840581 3.910379 4.055731 -2.877938 -3.768988 2.931263 3.754280 12.651111 -15.033477 nan nan nan -0.800527 -3.118372 0.326493 2.943615 0.179503 5.353299 1.211758 -6.812494 -12.909450 nan nan nan 0.191587 0.027447 7.846683 3.135969 -4.872782 4.858513 1.655948 -1.202999 -4.843033 -1.077743 2.521167 -1.119447 1.460256 3.249196 3.299566 -29.238737 -3.772016 0.726632 -53.534834 -5.738644 15.957188 1.689157 -24.229978 6.516547 -5.300924 -10.636845 1.872396 29.507238 6.442812 2.667039 53.230855 1.496120 14.769134 -8.797855 22.090683 -4.146041 7.443896 9.611332 -1.340458 
18.457335 -152.915726 90.969757 178.684502 0.492464 89.769924 0.843907 3.914373 4.082703 -2.886098 -3.774271 2.892558 3.750225 12.642642 -15.026264 nan nan nan -0.807577 -3.118168 0.325541 2.946015 0.175704 5.355803 1.218787 -6.811171 -12.905010 nan nan nan 0.178843 0.030475 7.832692 3.134720 -4.868280 4.859940 1.657007 -1.203202 -4.846566 -1.072654 2.514305 -1.120178 1.460744 3.240559 3.319718 -29.232647 -3.776068 0.734190 -53.526587 -5.748312 15.960401 1.665275 -24.188243 6.529485 -5.278828 -10.638147 1.875146 29.513638 6.438464 2.668966 53.244572 1.499233 14.764954 -8.805422 22.061787 -4.174152 7.402544 9.610438 -1.349456 
18.341869 -152.909439 91.064621 178.589091 0.366985 89.515373 0.897979 3.894740 5.564300 -3.204529 -3.799785 0.783631 3.691168 12.473514 -14.540208 nan nan nan -1.214820 -3.070658 0.563645 3.215152 -0.005873 5.424986 1.250795 -6.584033 -12.844494 nan nan nan 0.140441 0.004290 7.458914 2.815024 -4.559289 5.091408 1.669982 -1.250338 -4.661816 -1.027442 2.412769 -0.844095 1.523973 2.929469 3.301173 -29.188837 -3.216091 0.860228 -54.965879 -6.324925 14.792986 3.885150 -22.923427 5.363520 -5.951339 -11.018995 3.306007 29.393274 6.309873 2.706303 54.059021 1.787658 14.457096 -9.810735 20.028245 -3.648190 7.463089 10.500749 0.768043 
18.289597 -152.952652 91.136597 178.652403 0.369320 89.358177 0.883153 3.968738 6.183202 -3.172812 -4.021350 -0.086356 3.777609 12.495546 -14.287751 nan nan nan -1.276472 -3.065831 0.664956 3.275390 -0.139115 5.508611 1.361661 -6.575919 -12.845413 nan nan nan 0.090720 -0.055083 7.449262 2.743875 -4.560552 5.057915 1.666895 -1.237232 -4.584684 -0.986649 2.445538 -0.595880 1.640463 2.889219 3.111967 -28.906559 -3.200380 0.952239 -55.179672 -6.192961 14.720989 4.115373 -22.950298 5.639570 -6.036508 -10.626251 3.456244 29.183267 6.178400 2.731709 54.515378 1.498805 14.432896 -10.287484 20.347846 -3.609339 7.306390 10.320006 0.521209 
18.590508 -152.889374 91.250519 177.651145 0.029688 88.873883 0.808565 4.382508 7.674653 -3.365088 -4.126267 -1.503554 4.025330 13.088437 -14.093904 nan nan nan -1.247020 -2.594208 1.091872 2.891437 0.212639 5.647778 1.277240 -6.500788 -13.075437 nan nan nan -1.267943 0.243977 7.369167 2.751839 -4.064851 5.591849 2.194727 -0.930352 -4.605369 -0.684374 2.592850 -0.281268 1.772313 2.935043 2.945905 -28.463072 -3.057930 0.738882 -55.318128 -5.962535 14.641527 4.419504 -22.761624 5.736451 -7.011311 -10.567270 3.981530 29.297658 6.265447 2.860989 55.026856 1.191389 14.500532 -10.979649 20.360162 -3.894326 7.529214 10.463303 0.509978 
18.469248 -152.933884 91.324715 177.740230 -0.173914 88.708111 0.368675 4.435028 7.975973 -3.122736 -4.332780 -1.811267 4.300829 13.207700 -14.000095 nan nan nan -1.609513 -2.717511 1.280178 2.980079 0.178972 5.507079 1.416546 -6.461200 -13.061671 nan nan nan -1.451809 0.287534 7.257214 2.667393 -4.185813 5.915204 2.175971 -0.883224 -4.751019 -0.597339 2.581186 -0.086438 1.782090 3.024201 2.819382 -28.298931 -3.068510 0.688588 -55.550660 -5.896055 14.687828 4.730160 -22.447465 5.711815 -7.503025 -10.424683 4.216059 29.041610 6.240489 2.952429 55.509806 1.116664 14.403856 -11.327433 20.269157 -4.068527 7.575231 10.314964 0.576080 
18.746140 -153.161179 91.442741 179.221008 -0.006511 89.581612 0.945930 3.906104 6.049858 -3.574726 -4.712872 -0.485481 4.335497 12.736868 -14.190571 nan nan nan -0.804312 -3.186411 0.395441 2.565777 -0.233753 5.212061 0.925496 -7.137061 -12.939839 nan nan nan -2.398856 0.054901 6.129172 3.361542 -5.036780 6.623150 2.629020 -1.019779 -5.544952 -0.626601 2.523611 0.500931 1.942056 2.928107 2.287268 -28.291789 -3.017645 0.438079 -55.739945 -5.586222 15.288448 5.189634 -21.799583 4.718617 -7.914176 -10.262120 5.010518 29.217298 6.251997 2.760248 55.653871 0.506199 14.327437 -11.772947 19.996053 -4.466886 7.725721 10.497689 1.157983 
18.809669 -153.371399 91.491829 179.356611 0.064368 89.837787 1.057804 3.814439 5.426173 -3.663014 -4.554067 -0.122720 4.450192 12.603324 -14.208563 nan nan nan -0.558734 -3.180341 -0.260152 2.454863 -0.301456 5.552752 0.738304 -7.262027 -12.941004 nan nan nan -2.615542 0.159133 5.852043 3.476183 -5.040592 6.719994 2.711439 -1.102503 -5.667136 -0.553734 2.589665 0.314508 2.008738 2.767690 2.315081 -28.063501 -3.105097 0.399547 -55.998544 -5.708897 15.369917 5.575300 -21.168208 4.197096 -8.355828 -10.161700 5.313750 29.049373 6.182006 2.660089 56.099322 0.316279 14.266279 -12.248178 19.913400 -4.825641 7.818689 10.502124 0.963257 
18.867687 -153.803680 91.587982 179.220953 0.262647 90.104057 1.237567 3.952564 4.417794 -3.692525 -4.385117 0.668912 4.677077 12.553679 -14.369851 nan nan nan -0.028760 -2.940134 -1.421134 2.169003 -0.282778 6.386265 0.605697 -7.356720 -12.975782 nan nan nan -2.825533 0.280704 6.139464 3.764776 -4.902122 6.799577 2.798741 -0.941775 -6.397359 -0.606033 2.488101 0.263025 2.156013 2.806550 2.185026 -27.682845 -4.012925 0.090090 -55.005149 -5.655184 16.759052 3.335645 -20.016901 4.763048 -7.280507 -9.932898 4.432234 28.813757 6.377790 2.404249 56.419748 -0.132543 14.442664 -12.185985 21.008882 -6.809728 6.641099 9.416423 -1.042359 
18.484501 -153.644501 91.547333 178.502303 -0.219523 90.013158 0.063756 4.222837 5.070138 -3.052815 -4.191454 -0.130316 5.033434 12.828811 -14.338435 nan nan nan -1.225566 -2.869244 -1.388918 2.759218 -0.132002 6.656706 0.701419 -6.773875 -13.278202 nan nan nan -2.439741 0.665481 5.202635 3.323962 -4.712707 7.962975 2.159395 -0.821718 -6.693461 -0.492134 2.656355 0.514599 1.985933 2.399989 1.791202 -27.729501 -3.989211 -0.139741 -54.856166 -5.741376 16.818095 3.136266 -19.440761 4.373093 -7.299310 -10.396668 4.759735 28.628275 6.468118 2.465587 56.865103 0.092246 14.243937 -12.216084 20.141746 -7.510076 6.312010 9.856250 -0.585462 
18.526438 -153.921494 91.614967 178.264358 0.030549 89.846648 0.448722 4.340049 4.892044 -3.241077 -4.142990 0.241431 5.029628 12.857855 -14.342506 nan nan nan -0.684721 -2.278356 -1.653134 2.421644 -0.305307 7.098054 0.581903 -6.935876 -13.310523 nan nan nan -2.345392 0.601651 5.938465 3.324294 -4.289980 7.564493 2.236679 -0.690455 -6.799269 -0.549384 2.524936 0.438256 1.995575 2.271635 1.670551 -27.805947 -4.169568 -0.072311 -54.615518 -5.640512 16.747502 3.005938 -19.691339 4.299234 -6.725276 -10.031216 4.105623 28.658129 6.439414 2.563465 57.051403 -0.237943 14.033742 -12.717378 20.891172 -7.859337 5.973228 9.467093 -1.156671 
18.442360 -153.822464 91.567505 178.485922 -0.319676 89.342478 0.093375 4.323931 5.625715 -3.236806 -4.288305 -0.026949 5.073003 12.765572 -14.339595 nan nan nan -1.273477 -2.596626 -0.797895 2.621768 -0.335446 6.792194 0.384942 -6.827537 -13.448549 nan nan nan -2.572016 0.758474 6.182571 3.055627 -4.392199 7.545858 2.210689 -0.807957 -6.461387 -0.365518 2.514233 0.090375 1.991086 2.040527 1.870705 -27.636699 -4.232696 0.155256 -54.489497 -5.791804 16.334658 2.749333 -19.753298 4.547610 -6.511252 -10.070259 3.816192 28.546682 6.368229 2.614850 57.423340 0.018901 13.789922 -12.736707 20.669849 -7.925880 5.639411 9.398692 -1.345166 
18.427891 -153.914978 91.561081 178.376023 -0.359418 89.216172 0.096392 4.251322 5.689867 -3.331870 -4.265217 -0.023495 5.079943 12.868146 -14.261894 nan nan nan -1.344611 -2.624685 -0.729247 2.662780 -0.241318 6.804640 0.366987 -6.786109 -13.407630 nan nan nan -2.531130 0.866483 6.423550 2.896394 -4.282474 7.411292 2.123844 -0.799204 -6.421051 -0.313444 2.369081 -0.195555 2.070439 1.992349 2.008855 -27.663984 -4.187707 0.260991 -54.206344 -5.853930 16.178086 2.644860 -19.797351 4.561103 -6.410949 -10.182763 3.592520 28.467091 6.338694 2.555631 57.667926 0.137783 13.718320 -12.599149 20.356513 -7.894123 5.663843 9.510782 -1.641152 
